<?xml version="1.0" encoding="UTF-8"?>
<svg xmlns="http://www.w3.org/2000/svg" xmlns:xlink="http://www.w3.org/1999/xlink" width="23px" height="26px" viewBox="0 0 23 25" version="1.1">
<g id="surface1">
<path style=" stroke:none;fill-rule:nonzero;fill:rgb(63.137255%,47.45098%,86.27451%);fill-opacity:1;" d="M 22.894531 7.402344 C 22.894531 6.984375 22.804688 6.617188 22.621094 6.300781 C 22.4375 5.992188 22.160156 5.730469 21.792969 5.527344 C 18.761719 3.835938 15.722656 2.148438 12.6875 0.453125 C 11.871094 0 11.074219 0.015625 10.261719 0.476562 C 9.058594 1.167969 3.011719 4.515625 1.207031 5.523438 C 0.464844 5.941406 0.105469 6.574219 0.105469 7.398438 C 0.101562 10.800781 0.105469 14.199219 0.101562 17.597656 C 0.101562 18.003906 0.191406 18.371094 0.367188 18.679688 C 0.550781 19 0.828125 19.265625 1.207031 19.476562 C 3.007812 20.484375 9.058594 23.832031 10.261719 24.523438 C 11.074219 24.984375 11.871094 25 12.6875 24.542969 C 15.722656 22.851562 18.761719 21.164062 21.792969 19.472656 C 22.171875 19.265625 22.449219 18.996094 22.632812 18.679688 C 22.808594 18.367188 22.898438 18.003906 22.898438 17.597656 C 22.898438 17.597656 22.898438 10.800781 22.894531 7.402344 "/>
<path style=" stroke:none;fill-rule:nonzero;fill:rgb(15.686275%,0%,40.784314%);fill-opacity:1;" d="M 11.535156 12.464844 L 0.367188 18.679688 C 0.550781 19 0.828125 19.265625 1.207031 19.476562 C 3.007812 20.484375 9.058594 23.832031 10.261719 24.523438 C 11.074219 24.984375 11.871094 25 12.6875 24.542969 C 15.722656 22.851562 18.761719 21.164062 21.792969 19.472656 C 22.171875 19.265625 22.449219 18.996094 22.632812 18.679688 Z M 11.535156 12.464844 "/>
<path style=" stroke:none;fill-rule:nonzero;fill:rgb(22.352941%,0%,56.862745%);fill-opacity:1;" d="M 22.894531 7.402344 C 22.894531 6.984375 22.804688 6.617188 22.621094 6.300781 L 11.535156 12.464844 L 22.632812 18.679688 C 22.808594 18.367188 22.898438 18.003906 22.898438 17.597656 C 22.898438 17.597656 22.898438 10.800781 22.894531 7.402344 "/>
<path style=" stroke:none;fill-rule:nonzero;fill:rgb(100%,100%,100%);fill-opacity:1;" d="M 18.109375 10.144531 L 18.109375 11.304688 L 19.3125 11.304688 L 19.3125 10.144531 L 19.914062 10.144531 L 19.914062 11.304688 L 21.113281 11.304688 L 21.113281 11.886719 L 19.914062 11.886719 L 19.914062 13.050781 L 21.113281 13.050781 L 21.113281 13.628906 L 19.914062 13.628906 L 19.914062 14.789062 L 19.3125 14.789062 L 19.3125 13.628906 L 18.109375 13.628906 L 18.109375 14.789062 L 17.507812 14.789062 L 17.507812 13.628906 L 16.308594 13.628906 L 16.308594 13.050781 L 17.507812 13.050781 L 17.507812 11.886719 L 16.308594 11.886719 L 16.308594 11.304688 L 17.507812 11.304688 L 17.507812 10.144531 Z M 19.3125 11.886719 L 18.109375 11.886719 L 18.109375 13.050781 L 19.3125 13.050781 Z M 19.3125 11.886719 "/>
<path style=" stroke:none;fill-rule:nonzero;fill:rgb(100%,100%,100%);fill-opacity:1;" d="M 11.558594 4.3125 C 14.691406 4.3125 17.429688 5.957031 18.898438 8.402344 L 18.882812 8.378906 L 15.195312 10.433594 C 14.46875 9.242188 13.132812 8.4375 11.605469 8.421875 L 11.558594 8.421875 C 9.230469 8.421875 7.339844 10.246094 7.339844 12.5 C 7.339844 13.210938 7.53125 13.90625 7.894531 14.523438 C 8.625 15.75 9.988281 16.578125 11.558594 16.578125 C 13.136719 16.578125 14.511719 15.738281 15.234375 14.5 L 15.21875 14.527344 L 18.902344 16.589844 C 17.449219 19.011719 14.75 20.652344 11.65625 20.6875 L 11.558594 20.6875 C 8.414062 20.6875 5.671875 19.03125 4.207031 16.574219 C 3.492188 15.375 3.085938 13.980469 3.085938 12.5 C 3.085938 7.976562 6.878906 4.3125 11.558594 4.3125 Z M 11.558594 4.3125 "/>
</g>
</svg>
