<svg width="50" height="39" viewBox="0 0 50 39" fill="none" xmlns="http://www.w3.org/2000/svg">
<g clip-path="url(#clip0_5_4)">
<path d="M42.3271 3.15919C39.1403 1.69694 35.7229 0.619617 32.1498 0.00258835C32.0847 -0.0093201 32.0197 0.0204398 31.9862 0.0799609C31.5467 0.861659 31.0599 1.88145 30.7189 2.683C26.8758 2.10764 23.0525 2.10764 19.2882 2.683C18.9472 1.86363 18.4427 0.861659 18.0012 0.0799609C17.9677 0.0224257 17.9027 -0.00733418 17.8376 0.00258835C14.2665 0.617645 10.8491 1.69497 7.66028 3.15919C7.63268 3.1711 7.60901 3.19095 7.59331 3.21673C1.11123 12.9008 -0.66448 22.3469 0.206625 31.6758C0.210567 31.7215 0.236187 31.7651 0.271663 31.7929C4.54835 34.9336 8.69106 36.8403 12.7568 38.1041C12.8219 38.1239 12.8908 38.1001 12.9323 38.0465C13.894 36.7331 14.7513 35.3483 15.4864 33.8919C15.5298 33.8067 15.4884 33.7055 15.3997 33.6717C14.0399 33.1559 12.745 32.5269 11.4994 31.8127C11.4009 31.7552 11.393 31.6143 11.4837 31.5468C11.7458 31.3504 12.008 31.146 12.2582 30.9397C12.3035 30.902 12.3666 30.8941 12.4199 30.9179C20.6027 34.6538 29.4616 34.6538 37.5478 30.9179C37.6011 30.8921 37.6642 30.9 37.7114 30.9377C37.9618 31.1441 38.2239 31.3504 38.488 31.5468C38.5786 31.6143 38.5727 31.7552 38.4742 31.8127C37.2286 32.5408 35.9337 33.1559 34.5719 33.6698C34.4832 33.7035 34.4438 33.8067 34.4872 33.8919C35.238 35.3462 36.0954 36.7311 37.0394 38.0446C37.0788 38.1001 37.1497 38.1239 37.2148 38.1041C41.3003 36.8403 45.443 34.9336 49.7196 31.7929C49.7571 31.7651 49.7808 31.7234 49.7847 31.6778C50.8273 20.8925 48.0385 11.5239 42.3921 3.2187C42.3783 3.19095 42.3547 3.1711 42.3271 3.15919ZM16.7084 25.9955C14.2448 25.9955 12.2149 23.7337 12.2149 20.956C12.2149 18.1784 14.2054 15.9166 16.7084 15.9166C19.231 15.9166 21.2413 18.1982 21.2018 20.956C21.2018 23.7337 19.2113 25.9955 16.7084 25.9955ZM33.3224 25.9955C30.8589 25.9955 28.8289 23.7337 28.8289 20.956C28.8289 18.1784 30.8194 15.9166 33.3224 15.9166C35.8451 15.9166 37.8553 18.1982 37.8159 20.956C37.8159 23.7337 35.8451 25.9955 33.3224 25.9955Z" fill="white"/>
</g>
<defs>
<clipPath id="clip0_5_4">
<rect width="50" height="38.7324" fill="white"/>
</clipPath>
</defs>
</svg>
