<?xml version="1.0" encoding="UTF-8"?>
<svg xmlns="http://www.w3.org/2000/svg" xmlns:xlink="http://www.w3.org/1999/xlink" width="24px" height="24px" viewBox="0 0 24 24" version="1.1">
<defs>
<linearGradient id="linear0" gradientUnits="userSpaceOnUse" x1="55.549179" y1="77.070274" x2="110.14919" y2="131.85291" gradientTransform="matrix(0.218182,0,0,0.218182,-9.804546,-14.720454)">
<stop offset="0" style="stop-color:rgb(21.960784%,49.411765%,72.156863%);stop-opacity:1;"/>
<stop offset="1" style="stop-color:rgb(21.176471%,41.176471%,58.039216%);stop-opacity:1;"/>
</linearGradient>
<linearGradient id="linear1" gradientUnits="userSpaceOnUse" x1="89.136749" y1="111.92053" x2="147.77737" y2="168.1012" gradientTransform="matrix(0.218182,0,0,0.218182,-9.804546,-14.720454)">
<stop offset="0" style="stop-color:rgb(100%,87.843137%,32.156863%);stop-opacity:1;"/>
<stop offset="1" style="stop-color:rgb(100%,76.470588%,19.215686%);stop-opacity:1;"/>
</linearGradient>
</defs>
<g id="surface1">
<path style=" stroke:none;fill-rule:nonzero;fill:url(#linear0);" d="M 11.960938 0 C 5.839844 0 6.222656 2.652344 6.222656 2.652344 L 6.230469 5.402344 L 12.070312 5.402344 L 12.070312 6.222656 L 3.914062 6.222656 C 3.914062 6.222656 0 5.78125 0 11.953125 C 0 18.121094 3.414062 17.90625 3.414062 17.90625 L 5.457031 17.90625 L 5.457031 15.039062 C 5.457031 15.039062 5.34375 11.625 8.816406 11.625 C 12.289062 11.625 14.601562 11.625 14.601562 11.625 C 14.601562 11.625 17.855469 11.679688 17.855469 8.480469 C 17.855469 5.285156 17.855469 3.199219 17.855469 3.199219 C 17.855469 3.199219 18.351562 0 11.960938 0 Z M 8.742188 1.847656 C 9.320312 1.847656 9.789062 2.320312 9.789062 2.898438 C 9.789062 3.480469 9.320312 3.949219 8.742188 3.949219 C 8.160156 3.949219 7.691406 3.480469 7.691406 2.898438 C 7.691406 2.320312 8.160156 1.847656 8.742188 1.847656 Z M 8.742188 1.847656 "/>
<path style=" stroke:none;fill-rule:nonzero;fill:url(#linear1);" d="M 12.132812 23.96875 C 18.25 23.96875 17.867188 21.3125 17.867188 21.3125 L 17.859375 18.566406 L 12.023438 18.566406 L 12.023438 17.742188 L 20.179688 17.742188 C 20.179688 17.742188 24.089844 18.183594 24.089844 12.015625 C 24.089844 5.839844 20.675781 6.0625 20.675781 6.0625 L 18.636719 6.0625 L 18.636719 8.925781 C 18.636719 8.925781 18.746094 12.34375 15.277344 12.34375 C 11.804688 12.34375 9.488281 12.34375 9.488281 12.34375 C 9.488281 12.34375 6.234375 12.289062 6.234375 15.484375 C 6.234375 18.679688 6.234375 20.769531 6.234375 20.769531 C 6.234375 20.769531 5.742188 23.96875 12.132812 23.96875 Z M 15.351562 22.117188 C 14.769531 22.117188 14.300781 21.648438 14.300781 21.070312 C 14.300781 20.488281 14.769531 20.019531 15.351562 20.019531 C 15.929688 20.019531 16.402344 20.488281 16.402344 21.070312 C 16.402344 21.648438 15.929688 22.117188 15.351562 22.117188 Z M 15.351562 22.117188 "/>
</g>
</svg>
