<?xml version="1.0" encoding="UTF-8"?>
<svg xmlns="http://www.w3.org/2000/svg" xmlns:xlink="http://www.w3.org/1999/xlink" width="111px" height="26px" viewBox="0 0 110 26" version="1.1">
<g id="surface1">
<path style=" stroke:none;fill-rule:evenodd;fill:rgb(0%,0%,0%);fill-opacity:1;" d="M 50.523438 19.058594 C 50.523438 22.5625 52.488281 25.964844 57.277344 25.964844 C 62.375 25.964844 64.339844 22.285156 64.339844 19.058594 C 64.339844 10.480469 51.832031 14.371094 51.832031 6.660156 C 51.832031 3.78125 53.660156 0.96875 57.414062 0.96875 C 60.964844 0.96875 63.203125 2.980469 63.203125 6.488281 L 63.203125 7.078125 L 63.890625 7.078125 L 63.890625 6.558594 C 63.890625 3.640625 62.273438 0.34375 57.484375 0.34375 C 52.660156 0.34375 51.144531 4.125 51.144531 6.523438 C 51.144531 10.722656 53.898438 11.902344 57.621094 13.085938 C 60.515625 14.023438 63.652344 15.0625 63.652344 18.882812 C 63.652344 23.363281 60.6875 25.339844 57.242188 25.339844 C 53.382812 25.339844 51.210938 22.839844 51.210938 19.058594 L 51.210938 17.980469 L 50.523438 17.980469 Z M 50.523438 19.058594 "/>
<path style=" stroke:none;fill-rule:evenodd;fill:rgb(0%,0%,0%);fill-opacity:1;" d="M 74.988281 25.550781 L 86.460938 25.550781 L 86.460938 24.925781 L 75.675781 24.925781 L 75.675781 12.910156 L 85.429688 12.910156 L 85.429688 12.285156 L 75.675781 12.285156 L 75.675781 1.382812 L 86.1875 1.382812 L 86.1875 0.757812 L 74.988281 0.757812 Z M 74.988281 25.550781 "/>
<path style=" stroke:none;fill-rule:evenodd;fill:rgb(0%,0%,0%);fill-opacity:1;" d="M 101.96875 25.550781 L 102.65625 25.550781 L 102.65625 1.382812 L 109.34375 1.382812 L 109.34375 0.757812 L 95.28125 0.757812 L 95.28125 1.382812 L 101.96875 1.382812 Z M 101.96875 25.550781 "/>
<path style=" stroke:none;fill-rule:evenodd;fill:rgb(0%,0%,0%);fill-opacity:1;" d="M 5.441406 0.757812 L 4.550781 5.136719 C 5.558594 3.605469 6.746094 2.144531 8.097656 0.757812 Z M 5.441406 0.757812 "/>
<path style=" stroke:none;fill-rule:evenodd;fill:rgb(0%,0%,0%);fill-opacity:1;" d="M 6.703125 9.914062 C 5.65625 12.261719 5.125 14.640625 5.125 16.980469 C 5.125 18.777344 5.445312 20.496094 6.070312 22.082031 C 6.617188 23.457031 7.382812 24.710938 8.359375 25.820312 L 12.707031 25.820312 C 12.097656 25.429688 11.535156 24.972656 11.023438 24.457031 C 8.566406 21.988281 7.402344 18.617188 7.742188 14.972656 C 7.914062 13.171875 8.441406 11.371094 9.308594 9.617188 C 10.207031 7.804688 11.449219 6.097656 12.996094 4.539062 C 14.472656 3.054688 16.144531 1.847656 17.960938 0.953125 C 18.097656 0.886719 18.234375 0.820312 18.371094 0.757812 L 14.167969 0.757812 C 13.210938 1.460938 12.300781 2.25 11.441406 3.113281 C 9.382812 5.183594 7.789062 7.472656 6.703125 9.914062 "/>
<path style=" stroke:none;fill-rule:evenodd;fill:rgb(0%,0%,0%);fill-opacity:1;" d="M 4.300781 16.980469 C 4.300781 14.519531 4.855469 12.027344 5.949219 9.574219 C 7.078125 7.039062 8.730469 4.667969 10.859375 2.527344 C 11.484375 1.898438 12.136719 1.308594 12.8125 0.757812 L 9.273438 0.757812 C 9.128906 0.898438 8.988281 1.035156 8.847656 1.175781 C 6.882812 3.152344 5.273438 5.304688 4.050781 7.582031 L 1.550781 19.863281 C 1.730469 21.183594 2.058594 22.457031 2.542969 23.671875 C 2.835938 24.417969 3.191406 25.132812 3.59375 25.820312 L 7.28125 25.820312 C 6.457031 24.777344 5.796875 23.628906 5.304688 22.390625 C 4.640625 20.707031 4.300781 18.882812 4.300781 16.980469 "/>
<path style=" stroke:none;fill-rule:evenodd;fill:rgb(0%,0%,0%);fill-opacity:1;" d="M 25.511719 17.027344 C 26.988281 15.539062 27.804688 13.832031 27.804688 12.210938 C 27.804688 10.964844 27.335938 9.835938 26.449219 8.945312 C 26.023438 8.519531 25.523438 8.199219 24.960938 7.984375 L 24.675781 9.386719 C 24.957031 9.539062 25.214844 9.730469 25.4375 9.957031 C 26.214844 10.738281 26.589844 11.816406 26.5 12.984375 C 26.40625 14.148438 25.851562 15.292969 24.933594 16.21875 C 24.378906 16.777344 23.71875 17.222656 23.019531 17.523438 L 22.753906 18.835938 C 23.730469 18.46875 24.683594 17.863281 25.511719 17.027344 "/>
<path style=" stroke:none;fill-rule:evenodd;fill:rgb(0%,0%,0%);fill-opacity:1;" d="M 25.675781 12.917969 C 25.75 11.992188 25.457031 11.152344 24.855469 10.542969 C 24.746094 10.433594 24.628906 10.335938 24.5 10.25 L 23.230469 16.496094 C 23.632812 16.261719 24.011719 15.972656 24.351562 15.628906 C 25.128906 14.847656 25.601562 13.882812 25.675781 12.917969 "/>
<path style=" stroke:none;fill-rule:evenodd;fill:rgb(0%,0%,0%);fill-opacity:1;" d="M 28.628906 12.210938 C 28.628906 14.050781 27.730469 15.972656 26.097656 17.613281 C 25.070312 18.644531 23.84375 19.390625 22.5625 19.777344 L 22.246094 21.316406 C 23.902344 20.875 25.535156 19.90625 26.914062 18.515625 C 30.503906 14.90625 31.046875 10.003906 28.179688 7.117188 C 27.429688 6.363281 26.5 5.84375 25.453125 5.574219 L 25.128906 7.171875 C 25.851562 7.421875 26.5 7.824219 27.03125 8.359375 C 28.074219 9.410156 28.628906 10.742188 28.628906 12.210938 "/>
<path style=" stroke:none;fill-rule:evenodd;fill:rgb(0%,0%,0%);fill-opacity:1;" d="M 1.777344 23.980469 C 1.515625 23.324219 1.296875 22.65625 1.121094 21.972656 L 0.339844 25.820312 L 2.644531 25.820312 C 2.316406 25.226562 2.027344 24.613281 1.777344 23.980469 "/>
<path style=" stroke:none;fill-rule:evenodd;fill:rgb(0%,0%,0%);fill-opacity:1;" d="M 12.261719 6.585938 L 14.390625 6.585938 C 14.5 6.464844 14.613281 6.347656 14.730469 6.230469 C 16.988281 3.960938 19.789062 2.5 22.667969 2.078125 L 22.933594 0.757812 L 20.617188 0.757812 C 18.125 1.550781 15.675781 3.019531 13.578125 5.125 C 13.109375 5.597656 12.671875 6.085938 12.261719 6.585938 "/>
<path style=" stroke:none;fill-rule:evenodd;fill:rgb(0%,0%,0%);fill-opacity:1;" d="M 27.5 19.101562 C 25.90625 20.707031 23.996094 21.789062 22.066406 22.214844 L 21.726562 23.871094 C 24.226562 23.378906 26.703125 22.039062 28.640625 20.085938 C 30.839844 17.875 32.261719 15.191406 32.648438 12.53125 C 32.71875 12.046875 32.75 11.574219 32.753906 11.109375 C 32.753906 11 32.75 10.890625 32.746094 10.78125 C 32.667969 8.617188 31.828125 6.679688 30.261719 5.105469 C 29.09375 3.933594 27.617188 3.210938 25.992188 2.925781 L 25.621094 4.761719 C 26.824219 5.0625 27.898438 5.660156 28.765625 6.53125 C 31.964844 9.753906 31.421875 15.15625 27.5 19.101562 "/>
<path style=" stroke:none;fill-rule:evenodd;fill:rgb(0%,0%,0%);fill-opacity:1;" d="M 19.597656 10.164062 L 18.078125 10.164062 C 16.839844 11.527344 16.132812 13.183594 16.132812 14.753906 C 16.132812 15.214844 16.191406 15.65625 16.304688 16.074219 L 17.773438 16.074219 C 17.523438 15.5625 17.390625 14.988281 17.390625 14.382812 C 17.390625 13.058594 17.996094 11.722656 19.09375 10.617188 C 19.253906 10.457031 19.421875 10.304688 19.597656 10.164062 "/>
<path style=" stroke:none;fill-rule:evenodd;fill:rgb(0%,0%,0%);fill-opacity:1;" d="M 21.957031 5.566406 C 21.058594 5.765625 20.171875 6.109375 19.332031 6.582031 L 21.75 6.582031 Z M 21.957031 5.566406 "/>
<path style=" stroke:none;fill-rule:evenodd;fill:rgb(0%,0%,0%);fill-opacity:1;" d="M 30.84375 4.519531 C 31.957031 5.636719 32.742188 6.933594 33.175781 8.371094 C 33.1875 8.410156 33.203125 8.453125 33.214844 8.492188 L 33.601562 6.585938 L 34.703125 6.585938 C 34.179688 5.253906 33.390625 4.054688 32.351562 3.003906 C 31.34375 1.992188 30.152344 1.246094 28.84375 0.757812 L 26.433594 0.757812 L 26.160156 2.113281 C 26.550781 2.179688 26.929688 2.273438 27.308594 2.390625 C 28.671875 2.816406 29.863281 3.53125 30.84375 4.519531 "/>
<path style=" stroke:none;fill-rule:evenodd;fill:rgb(0%,0%,0%);fill-opacity:1;" d="M 35.582031 6.585938 L 38.390625 6.585938 C 37.855469 4.398438 36.804688 2.414062 35.273438 0.757812 L 30.773438 0.757812 C 31.566406 1.214844 32.289062 1.769531 32.933594 2.417969 C 34.132812 3.625 35.023438 5.027344 35.582031 6.585938 "/>
<path style=" stroke:none;fill-rule:evenodd;fill:rgb(0%,0%,0%);fill-opacity:1;" d="M 22.136719 4.683594 L 22.488281 2.945312 C 20.078125 3.367188 17.617188 4.597656 15.550781 6.582031 L 17.800781 6.582031 C 19.136719 5.613281 20.621094 4.960938 22.136719 4.683594 "/>
<path style=" stroke:none;fill-rule:evenodd;fill:rgb(0%,0%,0%);fill-opacity:1;" d="M 19.046875 19.878906 L 19.050781 19.875 L 15.847656 19.875 C 16.675781 20.648438 17.65625 21.171875 18.730469 21.421875 Z M 19.046875 19.878906 "/>
<path style=" stroke:none;fill-rule:evenodd;fill:rgb(0%,0%,0%);fill-opacity:1;" d="M 11.246094 15.71875 C 11.246094 15.835938 11.25 15.957031 11.253906 16.074219 L 13.121094 16.074219 C 13.089844 15.789062 13.074219 15.5 13.074219 15.207031 C 13.074219 13.496094 13.589844 11.75 14.535156 10.164062 L 12.769531 10.164062 C 11.773438 11.949219 11.246094 13.84375 11.246094 15.71875 "/>
<path style=" stroke:none;fill-rule:evenodd;fill:rgb(0%,0%,0%);fill-opacity:1;" d="M 18.558594 22.230469 C 17.246094 21.933594 16.058594 21.269531 15.070312 20.277344 C 14.941406 20.148438 14.820312 20.011719 14.703125 19.875 L 12.269531 19.875 C 12.628906 20.539062 13.078125 21.148438 13.613281 21.6875 C 14.851562 22.933594 16.417969 23.710938 18.199219 23.976562 Z M 18.558594 22.230469 "/>
<path style=" stroke:none;fill-rule:evenodd;fill:rgb(0%,0%,0%);fill-opacity:1;" d="M 8.5625 15.050781 C 8.246094 18.445312 9.324219 21.578125 11.605469 23.875 C 12.417969 24.691406 13.375 25.34375 14.453125 25.820312 L 17.816406 25.820312 L 18.03125 24.792969 C 16.09375 24.492188 14.386719 23.636719 13.03125 22.273438 C 12.332031 21.574219 11.765625 20.761719 11.339844 19.875 L 9.382812 19.875 L 10.136719 16.074219 L 10.429688 16.074219 C 10.421875 15.957031 10.421875 15.835938 10.421875 15.71875 C 10.421875 13.84375 10.910156 11.957031 11.832031 10.160156 L 11.351562 10.160156 L 12.007812 6.902344 C 10.03125 9.425781 8.828125 12.253906 8.5625 15.050781 "/>
<path style=" stroke:none;fill-rule:evenodd;fill:rgb(0%,0%,0%);fill-opacity:1;" d="M 13.898438 15.207031 C 13.898438 15.5 13.914062 15.789062 13.949219 16.074219 L 15.457031 16.074219 C 15.359375 15.648438 15.308594 15.207031 15.308594 14.753906 C 15.308594 13.816406 15.515625 12.871094 15.925781 11.941406 C 16.203125 11.320312 16.5625 10.722656 16.996094 10.164062 L 15.507812 10.164062 C 14.46875 11.734375 13.898438 13.496094 13.898438 15.207031 "/>
<path style=" stroke:none;fill-rule:evenodd;fill:rgb(0%,0%,0%);fill-opacity:1;" d="M 21.550781 24.746094 L 21.332031 25.820312 L 24.101562 25.820312 C 26.378906 24.992188 28.527344 23.640625 30.28125 21.875 C 30.371094 21.789062 30.457031 21.695312 30.542969 21.609375 L 31.230469 18.238281 C 30.65625 19.09375 29.984375 19.910156 29.226562 20.675781 C 27.085938 22.828125 24.320312 24.273438 21.550781 24.746094 "/>
<path style=" stroke:none;fill-rule:evenodd;fill:rgb(0%,0%,0%);fill-opacity:1;" d="M 29.683594 25.820312 L 30.246094 23.054688 C 29.027344 24.164062 27.65625 25.09375 26.199219 25.820312 Z M 29.683594 25.820312 "/>
<path style=" stroke:none;fill-rule:evenodd;fill:rgb(0%,0%,0%);fill-opacity:1;" d="M 35.429688 11.109375 L 33.574219 11.109375 C 33.574219 11.617188 33.539062 12.128906 33.464844 12.648438 C 33.25 14.128906 32.738281 15.609375 31.96875 17.019531 L 33.820312 17.019531 C 34.625 15.421875 35.144531 13.757812 35.347656 12.101562 C 35.386719 11.769531 35.414062 11.4375 35.429688 11.109375 "/>
<path style=" stroke:none;fill-rule:evenodd;fill:rgb(0%,0%,0%);fill-opacity:1;" d="M 40.261719 0.757812 L 36.371094 0.757812 C 37.777344 2.453125 38.746094 4.429688 39.238281 6.585938 L 42.246094 6.585938 C 42.0625 5.289062 41.734375 4.042969 41.265625 2.851562 C 40.980469 2.125 40.644531 1.429688 40.261719 0.757812 "/>
<path style=" stroke:none;fill-rule:evenodd;fill:rgb(0%,0%,0%);fill-opacity:1;" d="M 41.207031 0.757812 C 41.515625 1.335938 41.792969 1.933594 42.03125 2.546875 C 42.328125 3.292969 42.566406 4.058594 42.753906 4.84375 L 43.582031 0.757812 Z M 41.207031 0.757812 "/>
<path style=" stroke:none;fill-rule:evenodd;fill:rgb(0%,0%,0%);fill-opacity:1;" d="M 39.527344 11.765625 C 39.34375 13.535156 38.882812 15.300781 38.175781 17.023438 L 40.078125 17.023438 L 41.261719 11.109375 L 39.585938 11.109375 C 39.570312 11.328125 39.550781 11.546875 39.527344 11.765625 "/>
<path style=" stroke:none;fill-rule:evenodd;fill:rgb(0%,0%,0%);fill-opacity:1;" d="M 38.757812 11.109375 L 36.253906 11.109375 C 36.238281 11.472656 36.210938 11.832031 36.164062 12.199219 C 35.96875 13.824219 35.480469 15.449219 34.734375 17.019531 L 37.28125 17.019531 C 38.035156 15.277344 38.519531 13.476562 38.707031 11.679688 C 38.730469 11.488281 38.746094 11.300781 38.757812 11.109375 "/>
<path style=" stroke:none;fill-rule:evenodd;fill:rgb(0%,0%,0%);fill-opacity:1;" d="M 19.675781 11.203125 C 18.734375 12.152344 18.214844 13.28125 18.214844 14.382812 C 18.214844 15.019531 18.390625 15.597656 18.730469 16.074219 L 19.613281 16.074219 L 20.757812 10.367188 C 20.375 10.589844 20.007812 10.871094 19.675781 11.203125 "/>
</g>
</svg>
