<svg width="28" height="28" viewBox="0 0 28 28" fill="none" xmlns="http://www.w3.org/2000/svg">
<g clip-path="url(#clip0_4_2)">
<path fill-rule="evenodd" clip-rule="evenodd" d="M20.125 -0.125C20.9584 -0.125 21.7916 -0.125 22.625 -0.125C22.625 0.208333 22.625 0.541665 22.625 0.875C22.875 0.875 23.125 0.875 23.375 0.875C23.375 1.125 23.375 1.375 23.375 1.625C23.625 1.625 23.875 1.625 24.125 1.625C24.125 1.875 24.125 2.125 24.125 2.375C25.125 2.375 26.125 2.375 27.125 2.375C27.125 2.625 27.125 2.875 27.125 3.125C27.375 3.125 27.625 3.125 27.875 3.125C27.875 7.0417 27.875 10.9583 27.875 14.875C27.625 14.875 27.375 14.875 27.125 14.875C27.125 16.375 27.125 17.875 27.125 19.375C27.375 19.375 27.625 19.375 27.875 19.375C27.875 20.7083 27.875 22.0417 27.875 23.375C27.625 23.375 27.375 23.375 27.125 23.375C27.125 23.875 27.125 24.375 27.125 24.875C26.875 24.875 26.625 24.875 26.375 24.875C26.375 25.125 26.375 25.375 26.375 25.625C26.125 25.625 25.875 25.625 25.625 25.625C25.625 26.375 25.625 27.125 25.625 27.875C25.125 27.875 24.625 27.875 24.125 27.875C24.125 26.625 24.125 25.375 24.125 24.125C24.625 24.125 25.125 24.125 25.625 24.125C25.625 23.625 25.625 23.125 25.625 22.625C25.875 22.625 26.125 22.625 26.375 22.625C26.375 22.375 26.375 22.125 26.375 21.875C26.375 21.2916 26.375 20.7084 26.375 20.125C26.125 20.125 25.875 20.125 25.625 20.125C25.625 19.875 25.625 19.625 25.625 19.375C25.625 17.875 25.625 16.375 25.625 14.875C25.875 14.875 26.125 14.875 26.375 14.875C26.375 14.2916 26.375 13.7084 26.375 13.125C26.375 12.375 26.375 11.625 26.375 10.875C26.625 10.875 26.875 10.875 27.125 10.875C27.125 9.875 27.125 8.875 27.125 7.875C26.875 7.875 26.625 7.875 26.375 7.875C26.375 6.79165 26.375 5.70835 26.375 4.625C25.875 4.625 25.375 4.625 24.875 4.625C24.875 4.375 24.875 4.125 24.875 3.875C24.375 3.875 23.875 3.875 23.375 3.875C23.375 3.625 23.375 3.375 23.375 3.125C23.125 3.125 22.875 3.125 22.625 3.125C22.625 2.875 22.625 2.625 22.625 2.375C22.375 2.375 22.125 2.375 21.875 2.375C21.875 3.375 21.875 4.375 21.875 5.375C21.5417 5.375 21.2083 5.375 20.875 5.375C20.875 5.625 20.875 5.875 20.875 6.125C20.625 6.125 20.375 6.125 20.125 6.125C20.125 7.45835 20.125 8.79165 20.125 10.125C20.375 10.125 20.625 10.125 20.875 10.125C20.875 10.375 20.875 10.625 20.875 10.875C21.2083 10.875 21.5417 10.875 21.875 10.875C21.875 11.125 21.875 11.375 21.875 11.625C22.125 11.625 22.375 11.625 22.625 11.625C22.625 11.875 22.625 12.125 22.625 12.375C22.625 12.625 22.625 12.875 22.625 13.125C22.875 13.125 23.125 13.125 23.375 13.125C23.375 15.2083 23.375 17.2917 23.375 19.375C23.375 19.625 23.375 19.875 23.375 20.125C23.125 20.125 22.875 20.125 22.625 20.125C22.625 20.375 22.625 20.625 22.625 20.875C22.375 20.875 22.125 20.875 21.875 20.875C21.875 21.2083 21.875 21.5417 21.875 21.875C21.5417 21.875 21.2083 21.875 20.875 21.875C20.875 21.5417 20.875 21.2083 20.875 20.875C20.875 20.375 20.875 19.875 20.875 19.375C21.2083 19.375 21.5417 19.375 21.875 19.375C21.875 19.125 21.875 18.875 21.875 18.625C22.125 18.625 22.375 18.625 22.625 18.625C22.625 18.125 22.625 17.625 22.625 17.125C22.375 17.125 22.125 17.125 21.875 17.125C21.875 16.875 21.875 16.625 21.875 16.375C21.875 16.125 21.875 15.875 21.875 15.625C21.5417 15.625 21.2083 15.625 20.875 15.625C20.875 15.0416 20.875 14.4584 20.875 13.875C20.625 13.875 20.375 13.875 20.125 13.875C20.125 13.625 20.125 13.375 20.125 13.125C19.875 13.125 19.625 13.125 19.375 13.125C19.375 12.875 19.375 12.625 19.375 12.375C18.625 12.375 17.875 12.375 17.125 12.375C15.2917 12.375 13.4583 12.375 11.625 12.375C11.625 12.625 11.625 12.875 11.625 13.125C11.125 13.125 10.625 13.125 10.125 13.125C8.79165 13.125 7.45835 13.125 6.125 13.125C6.125 13.375 6.125 13.625 6.125 13.875C5.625 13.875 5.125 13.875 4.625 13.875C4.625 14.2083 4.625 14.5417 4.625 14.875C4.375 14.875 4.125 14.875 3.875 14.875C3.875 15.125 3.875 15.375 3.875 15.625C3.625 15.625 3.375 15.625 3.125 15.625C3.125 15.875 3.125 16.125 3.125 16.375C2.875 16.375 2.625 16.375 2.375 16.375C2.375 16.625 2.375 16.875 2.375 17.125C2.125 17.125 1.875 17.125 1.625 17.125C1.625 17.375 1.625 17.625 1.625 17.875C1.375 17.875 1.125 17.875 0.875 17.875C0.875 18.125 0.875 18.375 0.875 18.625C0.541665 18.625 0.208333 18.625 -0.125 18.625C-0.125 17.875 -0.125 17.125 -0.125 16.375C0.208333 16.375 0.541665 16.375 0.875 16.375C0.875 16.125 0.875 15.875 0.875 15.625C1.125 15.625 1.375 15.625 1.625 15.625C1.625 15.375 1.625 15.125 1.625 14.875C1.875 14.875 2.125 14.875 2.375 14.875C2.375 14.5417 2.375 14.2083 2.375 13.875C2.625 13.875 2.875 13.875 3.125 13.875C3.125 13.625 3.125 13.375 3.125 13.125C3.375 13.125 3.625 13.125 3.875 13.125C3.875 12.875 3.875 12.625 3.875 12.375C4.375 12.375 4.875 12.375 5.375 12.375C5.375 12.125 5.375 11.875 5.375 11.625C7.7083 11.625 10.0417 11.625 12.375 11.625C12.375 11.375 12.375 11.125 12.375 10.875C14.4583 10.875 16.5417 10.875 18.625 10.875C18.625 9.04165 18.625 7.20835 18.625 5.375C18.875 5.375 19.125 5.375 19.375 5.375C19.375 5.125 19.375 4.875 19.375 4.625C19.625 4.625 19.875 4.625 20.125 4.625C20.125 4.125 20.125 3.625 20.125 3.125C19.875 3.125 19.625 3.125 19.375 3.125C19.375 2.375 19.375 1.625 19.375 0.875C19.625 0.875 19.875 0.875 20.125 0.875C20.125 0.541665 20.125 0.208333 20.125 -0.125Z" fill="#FEFFFE"/>
<path fill-rule="evenodd" clip-rule="evenodd" d="M21.875 2.375C21.5417 2.375 21.2083 2.375 20.875 2.375C20.875 2.125 20.875 1.875 20.875 1.625C21.2083 1.625 21.5417 1.625 21.875 1.625C21.875 1.875 21.875 2.125 21.875 2.375Z" fill="#8D251C"/>
<path fill-rule="evenodd" clip-rule="evenodd" d="M21.875 2.375C22.125 2.375 22.375 2.375 22.625 2.375C22.625 2.625 22.625 2.875 22.625 3.125C22.875 3.125 23.125 3.125 23.375 3.125C23.375 3.375 23.375 3.625 23.375 3.875C23.125 3.875 22.875 3.875 22.625 3.875C22.625 4.875 22.625 5.875 22.625 6.875C22.375 6.875 22.125 6.875 21.875 6.875C21.875 7.45835 21.875 8.04165 21.875 8.625C21.5417 8.625 21.2083 8.625 20.875 8.625C20.875 8.875 20.875 9.125 20.875 9.375C21.2083 9.375 21.5417 9.375 21.875 9.375C21.875 9.875 21.875 10.375 21.875 10.875C21.5417 10.875 21.2083 10.875 20.875 10.875C20.875 10.625 20.875 10.375 20.875 10.125C20.625 10.125 20.375 10.125 20.125 10.125C20.125 8.79165 20.125 7.45835 20.125 6.125C20.375 6.125 20.625 6.125 20.875 6.125C20.875 5.875 20.875 5.625 20.875 5.375C21.2083 5.375 21.5417 5.375 21.875 5.375C21.875 4.375 21.875 3.375 21.875 2.375Z" fill="#8D251C"/>
<path fill-rule="evenodd" clip-rule="evenodd" d="M23.375 3.875C23.375 4.375 23.375 4.875 23.375 5.375C23.625 5.375 23.875 5.375 24.125 5.375C24.125 5.125 24.125 4.875 24.125 4.625C24.375 4.625 24.625 4.625 24.875 4.625C24.875 5.125 24.875 5.625 24.875 6.125C25.125 6.125 25.375 6.125 25.625 6.125C25.625 6.70835 25.625 7.29165 25.625 7.875C25.875 7.875 26.125 7.875 26.375 7.875C26.375 8.375 26.375 8.875 26.375 9.375C26.125 9.375 25.875 9.375 25.625 9.375C25.625 9.125 25.625 8.875 25.625 8.625C25.375 8.625 25.125 8.625 24.875 8.625C24.875 8.04165 24.875 7.45835 24.875 6.875C24.375 6.875 23.875 6.875 23.375 6.875C23.375 7.2083 23.375 7.5417 23.375 7.875C23.125 7.875 22.875 7.875 22.625 7.875C22.625 8.875 22.625 9.875 22.625 10.875C22.875 10.875 23.125 10.875 23.375 10.875C23.375 11.125 23.375 11.375 23.375 11.625C23.875 11.625 24.375 11.625 24.875 11.625C24.875 11.375 24.875 11.125 24.875 10.875C25.375 10.875 25.875 10.875 26.375 10.875C26.375 11.625 26.375 12.375 26.375 13.125C25.625 13.125 24.875 13.125 24.125 13.125C24.125 12.875 24.125 12.625 24.125 12.375C23.625 12.375 23.125 12.375 22.625 12.375C22.625 12.125 22.625 11.875 22.625 11.625C22.375 11.625 22.125 11.625 21.875 11.625C21.875 11.375 21.875 11.125 21.875 10.875C21.875 10.375 21.875 9.875 21.875 9.375C21.5417 9.375 21.2083 9.375 20.875 9.375C20.875 9.125 20.875 8.875 20.875 8.625C21.2083 8.625 21.5417 8.625 21.875 8.625C21.875 8.04165 21.875 7.45835 21.875 6.875C22.125 6.875 22.375 6.875 22.625 6.875C22.625 5.875 22.625 4.875 22.625 3.875C22.875 3.875 23.125 3.875 23.375 3.875Z" fill="#F7570A"/>
<path fill-rule="evenodd" clip-rule="evenodd" d="M23.375 3.875C23.875 3.875 24.375 3.875 24.875 3.875C24.875 4.125 24.875 4.375 24.875 4.625C24.625 4.625 24.375 4.625 24.125 4.625C24.125 4.875 24.125 5.125 24.125 5.375C23.875 5.375 23.625 5.375 23.375 5.375C23.375 4.875 23.375 4.375 23.375 3.875Z" fill="#8D251C"/>
<path fill-rule="evenodd" clip-rule="evenodd" d="M26.375 4.625C26.375 4.375 26.375 4.125 26.375 3.875C26.625 3.875 26.875 3.875 27.125 3.875C27.125 4.125 27.125 4.375 27.125 4.625C26.875 4.625 26.625 4.625 26.375 4.625Z" fill="#8D251C"/>
<path fill-rule="evenodd" clip-rule="evenodd" d="M24.875 4.625C25.375 4.625 25.875 4.625 26.375 4.625C26.375 5.70835 26.375 6.79165 26.375 7.875C26.125 7.875 25.875 7.875 25.625 7.875C25.625 7.29165 25.625 6.70835 25.625 6.125C25.375 6.125 25.125 6.125 24.875 6.125C24.875 5.625 24.875 5.125 24.875 4.625Z" fill="#8D251C"/>
<path fill-rule="evenodd" clip-rule="evenodd" d="M26.375 7.875C26.625 7.875 26.875 7.875 27.125 7.875C27.125 8.875 27.125 9.875 27.125 10.875C26.875 10.875 26.625 10.875 26.375 10.875C26.375 10.375 26.375 9.875 26.375 9.375C26.375 8.875 26.375 8.375 26.375 7.875Z" fill="#8D251C"/>
<path fill-rule="evenodd" clip-rule="evenodd" d="M26.375 9.375C26.375 9.875 26.375 10.375 26.375 10.875C25.875 10.875 25.375 10.875 24.875 10.875C24.875 11.125 24.875 11.375 24.875 11.625C24.375 11.625 23.875 11.625 23.375 11.625C23.375 11.375 23.375 11.125 23.375 10.875C23.125 10.875 22.875 10.875 22.625 10.875C22.625 9.875 22.625 8.875 22.625 7.875C22.875 7.875 23.125 7.875 23.375 7.875C23.375 7.5417 23.375 7.2083 23.375 6.875C23.875 6.875 24.375 6.875 24.875 6.875C24.875 7.45835 24.875 8.04165 24.875 8.625C25.125 8.625 25.375 8.625 25.625 8.625C25.625 8.875 25.625 9.125 25.625 9.375C25.875 9.375 26.125 9.375 26.375 9.375Z" fill="#F2931B"/>
<path fill-rule="evenodd" clip-rule="evenodd" d="M17.125 12.375C17.125 12.625 17.125 12.875 17.125 13.125C17.375 13.125 17.625 13.125 17.875 13.125C17.875 13.375 17.875 13.625 17.875 13.875C18.125 13.875 18.375 13.875 18.625 13.875C18.625 14.2083 18.625 14.5417 18.625 14.875C18.875 14.875 19.125 14.875 19.375 14.875C19.375 15.125 19.375 15.375 19.375 15.625C19.625 15.625 19.875 15.625 20.125 15.625C20.125 15.875 20.125 16.125 20.125 16.375C19.125 16.375 18.125 16.375 17.125 16.375C17.125 16.625 17.125 16.875 17.125 17.125C16.625 17.125 16.125 17.125 15.625 17.125C15.625 17.625 15.625 18.125 15.625 18.625C15.875 18.625 16.125 18.625 16.375 18.625C16.375 18.875 16.375 19.125 16.375 19.375C17.875 19.375 19.375 19.375 20.875 19.375C20.875 19.875 20.875 20.375 20.875 20.875C20.625 20.875 20.375 20.875 20.125 20.875C19.875 20.875 19.625 20.875 19.375 20.875C19.375 20.625 19.375 20.375 19.375 20.125C16.5417 20.125 13.7083 20.125 10.875 20.125C10.875 20.375 10.875 20.625 10.875 20.875C10.625 20.875 10.375 20.875 10.125 20.875C10.125 20.375 10.125 19.875 10.125 19.375C11.125 19.375 12.125 19.375 13.125 19.375C13.125 19.125 13.125 18.875 13.125 18.625C13.375 18.625 13.625 18.625 13.875 18.625C13.875 18.125 13.875 17.625 13.875 17.125C13.625 17.125 13.375 17.125 13.125 17.125C13.125 16.875 13.125 16.625 13.125 16.375C12.375 16.375 11.625 16.375 10.875 16.375C10.875 16.125 10.875 15.875 10.875 15.625C11.625 15.625 12.375 15.625 13.125 15.625C13.125 15.375 13.125 15.125 13.125 14.875C12.375 14.875 11.625 14.875 10.875 14.875C10.875 14.5417 10.875 14.2083 10.875 13.875C10.625 13.875 10.375 13.875 10.125 13.875C10.125 13.625 10.125 13.375 10.125 13.125C10.625 13.125 11.125 13.125 11.625 13.125C11.625 12.875 11.625 12.625 11.625 12.375C13.4583 12.375 15.2917 12.375 17.125 12.375Z" fill="#BEA620"/>
<path fill-rule="evenodd" clip-rule="evenodd" d="M17.125 12.375C17.875 12.375 18.625 12.375 19.375 12.375C19.375 12.625 19.375 12.875 19.375 13.125C19.625 13.125 19.875 13.125 20.125 13.125C20.125 13.375 20.125 13.625 20.125 13.875C19.625 13.875 19.125 13.875 18.625 13.875C18.375 13.875 18.125 13.875 17.875 13.875C17.875 13.625 17.875 13.375 17.875 13.125C17.625 13.125 17.375 13.125 17.125 13.125C17.125 12.875 17.125 12.625 17.125 12.375Z" fill="#33984A"/>
<path fill-rule="evenodd" clip-rule="evenodd" d="M22.625 12.375C23.125 12.375 23.625 12.375 24.125 12.375C24.125 12.625 24.125 12.875 24.125 13.125C24.875 13.125 25.625 13.125 26.375 13.125C26.375 13.7084 26.375 14.2916 26.375 14.875C26.125 14.875 25.875 14.875 25.625 14.875C25.625 16.375 25.625 17.875 25.625 19.375C24.875 19.375 24.125 19.375 23.375 19.375C23.375 17.2917 23.375 15.2083 23.375 13.125C23.125 13.125 22.875 13.125 22.625 13.125C22.625 12.875 22.625 12.625 22.625 12.375Z" fill="#B96A47"/>
<path fill-rule="evenodd" clip-rule="evenodd" d="M10.125 13.125C10.125 13.375 10.125 13.625 10.125 13.875C9.875 13.875 9.625 13.875 9.375 13.875C9.125 13.875 8.875 13.875 8.625 13.875C8.625 14.2083 8.625 14.5417 8.625 14.875C8.375 14.875 8.125 14.875 7.875 14.875C7.875 15.125 7.875 15.375 7.875 15.625C7.04165 15.625 6.20835 15.625 5.375 15.625C5.375 15.875 5.375 16.125 5.375 16.375C4.875 16.375 4.375 16.375 3.875 16.375C3.875 16.625 3.875 16.875 3.875 17.125C3.625 17.125 3.375 17.125 3.125 17.125C3.125 17.375 3.125 17.625 3.125 17.875C2.875 17.875 2.625 17.875 2.375 17.875C2.375 17.625 2.375 17.375 2.375 17.125C2.375 16.875 2.375 16.625 2.375 16.375C2.625 16.375 2.875 16.375 3.125 16.375C3.125 16.125 3.125 15.875 3.125 15.625C3.375 15.625 3.625 15.625 3.875 15.625C3.875 15.375 3.875 15.125 3.875 14.875C4.125 14.875 4.375 14.875 4.625 14.875C4.625 14.5417 4.625 14.2083 4.625 13.875C5.125 13.875 5.625 13.875 6.125 13.875C6.125 13.625 6.125 13.375 6.125 13.125C7.45835 13.125 8.79165 13.125 10.125 13.125Z" fill="#33984A"/>
<path fill-rule="evenodd" clip-rule="evenodd" d="M9.375 13.875C9.375 14.2083 9.375 14.5417 9.375 14.875C9.125 14.875 8.875 14.875 8.625 14.875C8.625 14.5417 8.625 14.2083 8.625 13.875C8.875 13.875 9.125 13.875 9.375 13.875Z" fill="#0D071B"/>
<path fill-rule="evenodd" clip-rule="evenodd" d="M9.375 13.875C9.625 13.875 9.875 13.875 10.125 13.875C10.375 13.875 10.625 13.875 10.875 13.875C10.875 14.2083 10.875 14.5417 10.875 14.875C10.375 14.875 9.875 14.875 9.375 14.875C9.375 14.5417 9.375 14.2083 9.375 13.875Z" fill="#9D070A"/>
<path fill-rule="evenodd" clip-rule="evenodd" d="M18.625 13.875C19.125 13.875 19.625 13.875 20.125 13.875C20.125 14.2083 20.125 14.5417 20.125 14.875C19.875 14.875 19.625 14.875 19.375 14.875C19.125 14.875 18.875 14.875 18.625 14.875C18.625 14.5417 18.625 14.2083 18.625 13.875Z" fill="#0D071B"/>
<path fill-rule="evenodd" clip-rule="evenodd" d="M20.125 13.875C20.375 13.875 20.625 13.875 20.875 13.875C20.875 14.4584 20.875 15.0416 20.875 15.625C21.2083 15.625 21.5417 15.625 21.875 15.625C21.875 15.875 21.875 16.125 21.875 16.375C21.2916 16.375 20.7084 16.375 20.125 16.375C20.125 16.125 20.125 15.875 20.125 15.625C19.875 15.625 19.625 15.625 19.375 15.625C19.375 15.375 19.375 15.125 19.375 14.875C19.625 14.875 19.875 14.875 20.125 14.875C20.125 14.5417 20.125 14.2083 20.125 13.875Z" fill="#33984A"/>
<path fill-rule="evenodd" clip-rule="evenodd" d="M8.625 14.875C8.875 14.875 9.125 14.875 9.375 14.875C9.875 14.875 10.375 14.875 10.875 14.875C10.875 15.125 10.875 15.375 10.875 15.625C10.875 15.875 10.875 16.125 10.875 16.375C10.375 16.375 9.875 16.375 9.375 16.375C9.375 16.625 9.375 16.875 9.375 17.125C8.875 17.125 8.375 17.125 7.875 17.125C7.875 17.625 7.875 18.125 7.875 18.625C8.375 18.625 8.875 18.625 9.375 18.625C9.375 18.875 9.375 19.125 9.375 19.375C9.625 19.375 9.875 19.375 10.125 19.375C10.125 19.875 10.125 20.375 10.125 20.875C9.875 20.875 9.625 20.875 9.375 20.875C9.375 21.4584 9.375 22.0416 9.375 22.625C9.625 22.625 9.875 22.625 10.125 22.625C10.125 22.875 10.125 23.125 10.125 23.375C10.625 23.375 11.125 23.375 11.625 23.375C11.625 23.125 11.625 22.875 11.625 22.625C12.125 22.625 12.625 22.625 13.125 22.625C13.125 22.375 13.125 22.125 13.125 21.875C14.4583 21.875 15.7917 21.875 17.125 21.875C17.125 22.125 17.125 22.375 17.125 22.625C17.875 22.625 18.625 22.625 19.375 22.625C19.375 22.875 19.375 23.125 19.375 23.375C19.125 23.375 18.875 23.375 18.625 23.375C18.625 23.625 18.625 23.875 18.625 24.125C18.375 24.125 18.125 24.125 17.875 24.125C17.375 24.125 16.875 24.125 16.375 24.125C16.375 24.375 16.375 24.625 16.375 24.875C14.7917 24.875 13.2083 24.875 11.625 24.875C11.625 25.125 11.625 25.375 11.625 25.625C11.125 25.625 10.625 25.625 10.125 25.625C10.125 25.375 10.125 25.125 10.125 24.875C9.375 24.875 8.625 24.875 7.875 24.875C7.875 24.625 7.875 24.375 7.875 24.125C7.29165 24.125 6.70835 24.125 6.125 24.125C6.125 23.875 6.125 23.625 6.125 23.375C5.625 23.375 5.125 23.375 4.625 23.375C4.625 23.125 4.625 22.875 4.625 22.625C4.375 22.625 4.125 22.625 3.875 22.625C3.875 22.375 3.875 22.125 3.875 21.875C3.625 21.875 3.375 21.875 3.125 21.875C3.125 21.5417 3.125 21.2083 3.125 20.875C2.875 20.875 2.625 20.875 2.375 20.875C2.375 20.625 2.375 20.375 2.375 20.125C2.125 20.125 1.875 20.125 1.625 20.125C1.625 19.625 1.625 19.125 1.625 18.625C1.875 18.625 2.125 18.625 2.375 18.625C2.375 18.375 2.375 18.125 2.375 17.875C2.625 17.875 2.875 17.875 3.125 17.875C3.125 17.625 3.125 17.375 3.125 17.125C3.375 17.125 3.625 17.125 3.875 17.125C3.875 16.875 3.875 16.625 3.875 16.375C4.375 16.375 4.875 16.375 5.375 16.375C5.375 16.125 5.375 15.875 5.375 15.625C6.20835 15.625 7.04165 15.625 7.875 15.625C7.875 15.375 7.875 15.125 7.875 14.875C8.125 14.875 8.375 14.875 8.625 14.875Z" fill="#B19323"/>
<path fill-rule="evenodd" clip-rule="evenodd" d="M10.875 14.875C11.625 14.875 12.375 14.875 13.125 14.875C13.125 15.125 13.125 15.375 13.125 15.625C12.375 15.625 11.625 15.625 10.875 15.625C10.875 15.375 10.875 15.125 10.875 14.875Z" fill="#AF2C0B"/>
<path fill-rule="evenodd" clip-rule="evenodd" d="M18.625 14.875C18.625 15.125 18.625 15.375 18.625 15.625C18.125 15.625 17.625 15.625 17.125 15.625C17.125 15.375 17.125 15.125 17.125 14.875C17.625 14.875 18.125 14.875 18.625 14.875Z" fill="#B5350A"/>
<path fill-rule="evenodd" clip-rule="evenodd" d="M10.875 16.375C11.625 16.375 12.375 16.375 13.125 16.375C13.125 16.625 13.125 16.875 13.125 17.125C13.375 17.125 13.625 17.125 13.875 17.125C13.875 17.625 13.875 18.125 13.875 18.625C13.625 18.625 13.375 18.625 13.125 18.625C13.125 18.875 13.125 19.125 13.125 19.375C12.125 19.375 11.125 19.375 10.125 19.375C9.875 19.375 9.625 19.375 9.375 19.375C9.375 19.125 9.375 18.875 9.375 18.625C8.875 18.625 8.375 18.625 7.875 18.625C7.875 18.125 7.875 17.625 7.875 17.125C8.375 17.125 8.875 17.125 9.375 17.125C9.375 16.875 9.375 16.625 9.375 16.375C9.875 16.375 10.375 16.375 10.875 16.375Z" fill="#FCF566"/>
<path fill-rule="evenodd" clip-rule="evenodd" d="M20.125 16.375C20.7084 16.375 21.2916 16.375 21.875 16.375C21.875 16.625 21.875 16.875 21.875 17.125C22.125 17.125 22.375 17.125 22.625 17.125C22.625 17.625 22.625 18.125 22.625 18.625C22.375 18.625 22.125 18.625 21.875 18.625C21.875 18.875 21.875 19.125 21.875 19.375C21.5417 19.375 21.2083 19.375 20.875 19.375C19.375 19.375 17.875 19.375 16.375 19.375C16.375 19.125 16.375 18.875 16.375 18.625C16.125 18.625 15.875 18.625 15.625 18.625C15.625 18.125 15.625 17.625 15.625 17.125C16.125 17.125 16.625 17.125 17.125 17.125C17.125 16.875 17.125 16.625 17.125 16.375C18.125 16.375 19.125 16.375 20.125 16.375Z" fill="#F9EE65"/>
<path fill-rule="evenodd" clip-rule="evenodd" d="M2.375 17.125C2.375 17.375 2.375 17.625 2.375 17.875C2.375 18.125 2.375 18.375 2.375 18.625C2.125 18.625 1.875 18.625 1.625 18.625C1.625 19.125 1.625 19.625 1.625 20.125C1.875 20.125 2.125 20.125 2.375 20.125C2.375 20.375 2.375 20.625 2.375 20.875C2.625 20.875 2.875 20.875 3.125 20.875C3.125 21.2083 3.125 21.5417 3.125 21.875C3.375 21.875 3.625 21.875 3.875 21.875C3.875 22.125 3.875 22.375 3.875 22.625C4.125 22.625 4.375 22.625 4.625 22.625C4.625 22.875 4.625 23.125 4.625 23.375C5.125 23.375 5.625 23.375 6.125 23.375C6.125 23.625 6.125 23.875 6.125 24.125C6.70835 24.125 7.29165 24.125 7.875 24.125C7.875 24.375 7.875 24.625 7.875 24.875C8.625 24.875 9.375 24.875 10.125 24.875C10.125 25.125 10.125 25.375 10.125 25.625C10.625 25.625 11.125 25.625 11.625 25.625C11.625 25.875 11.625 26.125 11.625 26.375C9.2917 26.375 6.9583 26.375 4.625 26.375C4.625 26.125 4.625 25.875 4.625 25.625C4.375 25.625 4.125 25.625 3.875 25.625C3.875 25.375 3.875 25.125 3.875 24.875C3.375 24.875 2.875 24.875 2.375 24.875C2.375 24.625 2.375 24.375 2.375 24.125C2.125 24.125 1.875 24.125 1.625 24.125C1.625 23.875 1.625 23.625 1.625 23.375C1.375 23.375 1.125 23.375 0.875 23.375C0.875 23.125 0.875 22.875 0.875 22.625C0.541665 22.625 0.208333 22.625 -0.125 22.625C-0.125 21.2917 -0.125 19.9583 -0.125 18.625C0.208333 18.625 0.541665 18.625 0.875 18.625C0.875 18.375 0.875 18.125 0.875 17.875C1.125 17.875 1.375 17.875 1.625 17.875C1.625 17.625 1.625 17.375 1.625 17.125C1.875 17.125 2.125 17.125 2.375 17.125Z" fill="#1E6E4F"/>
<path fill-rule="evenodd" clip-rule="evenodd" d="M10.125 17.125C10.625 17.125 11.125 17.125 11.625 17.125C11.625 17.625 11.625 18.125 11.625 18.625C11.125 18.625 10.625 18.625 10.125 18.625C10.125 18.125 10.125 17.625 10.125 17.125Z" fill="#B93E0B"/>
<path fill-rule="evenodd" clip-rule="evenodd" d="M18.625 17.125C19.125 17.125 19.625 17.125 20.125 17.125C20.125 17.625 20.125 18.125 20.125 18.625C19.625 18.625 19.125 18.625 18.625 18.625C18.625 18.125 18.625 17.625 18.625 17.125Z" fill="#A3120B"/>
<path fill-rule="evenodd" clip-rule="evenodd" d="M20.125 20.875C20.125 21.4584 20.125 22.0416 20.125 22.625C19.875 22.625 19.625 22.625 19.375 22.625C18.625 22.625 17.875 22.625 17.125 22.625C17.125 22.375 17.125 22.125 17.125 21.875C15.7917 21.875 14.4583 21.875 13.125 21.875C13.125 22.125 13.125 22.375 13.125 22.625C12.625 22.625 12.125 22.625 11.625 22.625C11.625 22.875 11.625 23.125 11.625 23.375C11.125 23.375 10.625 23.375 10.125 23.375C10.125 23.125 10.125 22.875 10.125 22.625C9.875 22.625 9.625 22.625 9.375 22.625C9.375 22.0416 9.375 21.4584 9.375 20.875C9.625 20.875 9.875 20.875 10.125 20.875C10.375 20.875 10.625 20.875 10.875 20.875C10.875 20.625 10.875 20.375 10.875 20.125C13.7083 20.125 16.5417 20.125 19.375 20.125C19.375 20.375 19.375 20.625 19.375 20.875C19.625 20.875 19.875 20.875 20.125 20.875Z" fill="#EB6410"/>
<path fill-rule="evenodd" clip-rule="evenodd" d="M23.375 19.375C24.125 19.375 24.875 19.375 25.625 19.375C25.625 19.625 25.625 19.875 25.625 20.125C25.875 20.125 26.125 20.125 26.375 20.125C26.375 20.7084 26.375 21.2916 26.375 21.875C26.125 21.875 25.875 21.875 25.625 21.875C25.625 21.5417 25.625 21.2083 25.625 20.875C24.875 20.875 24.125 20.875 23.375 20.875C23.125 20.875 22.875 20.875 22.625 20.875C22.625 20.625 22.625 20.375 22.625 20.125C22.875 20.125 23.125 20.125 23.375 20.125C23.375 19.875 23.375 19.625 23.375 19.375Z" fill="#C69219"/>
<path fill-rule="evenodd" clip-rule="evenodd" d="M23.375 20.875C24.125 20.875 24.875 20.875 25.625 20.875C25.625 21.2083 25.625 21.5417 25.625 21.875C25.875 21.875 26.125 21.875 26.375 21.875C26.375 22.125 26.375 22.375 26.375 22.625C26.125 22.625 25.875 22.625 25.625 22.625C25.625 23.125 25.625 23.625 25.625 24.125C25.125 24.125 24.625 24.125 24.125 24.125C24.125 23.875 24.125 23.625 24.125 23.375C23.875 23.375 23.625 23.375 23.375 23.375C23.375 23.125 23.375 22.875 23.375 22.625C23.375 22.0416 23.375 21.4584 23.375 20.875Z" fill="#51B94E"/>
<path fill-rule="evenodd" clip-rule="evenodd" d="M20.125 20.875C20.375 20.875 20.625 20.875 20.875 20.875C20.875 21.2083 20.875 21.5417 20.875 21.875C21.2083 21.875 21.5417 21.875 21.875 21.875C21.875 21.5417 21.875 21.2083 21.875 20.875C22.125 20.875 22.375 20.875 22.625 20.875C22.875 20.875 23.125 20.875 23.375 20.875C23.375 21.4584 23.375 22.0416 23.375 22.625C23.125 22.625 22.875 22.625 22.625 22.625C22.625 22.875 22.625 23.125 22.625 23.375C21.7916 23.375 20.9584 23.375 20.125 23.375C20.125 23.625 20.125 23.875 20.125 24.125C19.625 24.125 19.125 24.125 18.625 24.125C18.625 23.875 18.625 23.625 18.625 23.375C18.875 23.375 19.125 23.375 19.375 23.375C19.375 23.125 19.375 22.875 19.375 22.625C19.625 22.625 19.875 22.625 20.125 22.625C20.125 22.0416 20.125 21.4584 20.125 20.875Z" fill="#2B874D"/>
<path fill-rule="evenodd" clip-rule="evenodd" d="M-0.125 22.625C0.208333 22.625 0.541665 22.625 0.875 22.625C0.875 22.875 0.875 23.125 0.875 23.375C1.125 23.375 1.375 23.375 1.625 23.375C1.625 23.625 1.625 23.875 1.625 24.125C1.875 24.125 2.125 24.125 2.375 24.125C2.375 24.375 2.375 24.625 2.375 24.875C2.875 24.875 3.375 24.875 3.875 24.875C3.875 25.125 3.875 25.375 3.875 25.625C3.125 25.625 2.375 25.625 1.625 25.625C1.625 25.375 1.625 25.125 1.625 24.875C1.375 24.875 1.125 24.875 0.875 24.875C0.875 24.625 0.875 24.375 0.875 24.125C0.541665 24.125 0.208333 24.125 -0.125 24.125C-0.125 23.625 -0.125 23.125 -0.125 22.625Z" fill="#134C4B"/>
<path fill-rule="evenodd" clip-rule="evenodd" d="M22.625 23.375C22.625 23.625 22.625 23.875 22.625 24.125C22.0416 24.125 21.4584 24.125 20.875 24.125C20.875 24.625 20.875 25.125 20.875 25.625C20.625 25.625 20.375 25.625 20.125 25.625C20.125 25.875 20.125 26.125 20.125 26.375C19.875 26.375 19.625 26.375 19.375 26.375C19.375 26.625 19.375 26.875 19.375 27.125C19.125 27.125 18.875 27.125 18.625 27.125C18.625 27.375 18.625 27.625 18.625 27.875C13.9583 27.875 9.2917 27.875 4.625 27.875C4.625 27.625 4.625 27.375 4.625 27.125C3.625 27.125 2.625 27.125 1.625 27.125C1.625 26.875 1.625 26.625 1.625 26.375C1.04167 26.375 0.458332 26.375 -0.125 26.375C-0.125 25.625 -0.125 24.875 -0.125 24.125C0.208333 24.125 0.541665 24.125 0.875 24.125C0.875 24.375 0.875 24.625 0.875 24.875C1.125 24.875 1.375 24.875 1.625 24.875C1.625 25.125 1.625 25.375 1.625 25.625C2.375 25.625 3.125 25.625 3.875 25.625C4.125 25.625 4.375 25.625 4.625 25.625C4.625 25.875 4.625 26.125 4.625 26.375C6.9583 26.375 9.2917 26.375 11.625 26.375C11.625 26.125 11.625 25.875 11.625 25.625C13.4583 25.625 15.2917 25.625 17.125 25.625C17.125 25.375 17.125 25.125 17.125 24.875C17.375 24.875 17.625 24.875 17.875 24.875C17.875 24.625 17.875 24.375 17.875 24.125C18.125 24.125 18.375 24.125 18.625 24.125C19.125 24.125 19.625 24.125 20.125 24.125C20.125 23.875 20.125 23.625 20.125 23.375C20.9584 23.375 21.7916 23.375 22.625 23.375Z" fill="#3A03DC"/>
<path fill-rule="evenodd" clip-rule="evenodd" d="M22.625 24.125C22.625 24.625 22.625 25.125 22.625 25.625C22.0416 25.625 21.4584 25.625 20.875 25.625C20.875 25.125 20.875 24.625 20.875 24.125C21.4584 24.125 22.0416 24.125 22.625 24.125Z" fill="#DA3FFD"/>
<path fill-rule="evenodd" clip-rule="evenodd" d="M22.625 24.125C22.875 24.125 23.125 24.125 23.375 24.125C23.375 24.625 23.375 25.125 23.375 25.625C23.125 25.625 22.875 25.625 22.625 25.625C22.625 25.125 22.625 24.625 22.625 24.125Z" fill="#0C0193"/>
<path fill-rule="evenodd" clip-rule="evenodd" d="M17.875 24.125C17.875 24.375 17.875 24.625 17.875 24.875C17.625 24.875 17.375 24.875 17.125 24.875C17.125 25.125 17.125 25.375 17.125 25.625C15.2917 25.625 13.4583 25.625 11.625 25.625C11.625 25.375 11.625 25.125 11.625 24.875C13.2083 24.875 14.7917 24.875 16.375 24.875C16.375 24.625 16.375 24.375 16.375 24.125C16.875 24.125 17.375 24.125 17.875 24.125Z" fill="#1C684F"/>
<path fill-rule="evenodd" clip-rule="evenodd" d="M20.875 25.625C21.4584 25.625 22.0416 25.625 22.625 25.625C22.625 25.875 22.625 26.125 22.625 26.375C22.0416 26.375 21.4584 26.375 20.875 26.375C20.875 26.625 20.875 26.875 20.875 27.125C20.625 27.125 20.375 27.125 20.125 27.125C20.125 27.375 20.125 27.625 20.125 27.875C19.625 27.875 19.125 27.875 18.625 27.875C18.625 27.625 18.625 27.375 18.625 27.125C18.875 27.125 19.125 27.125 19.375 27.125C19.375 26.875 19.375 26.625 19.375 26.375C19.625 26.375 19.875 26.375 20.125 26.375C20.125 26.125 20.125 25.875 20.125 25.625C20.375 25.625 20.625 25.625 20.875 25.625Z" fill="#12029D"/>
<path fill-rule="evenodd" clip-rule="evenodd" d="M23.375 22.625C23.375 22.875 23.375 23.125 23.375 23.375C23.625 23.375 23.875 23.375 24.125 23.375C24.125 23.625 24.125 23.875 24.125 24.125C24.125 25.375 24.125 26.625 24.125 27.875C23.625 27.875 23.125 27.875 22.625 27.875C22.625 27.375 22.625 26.875 22.625 26.375C22.625 26.125 22.625 25.875 22.625 25.625C22.875 25.625 23.125 25.625 23.375 25.625C23.375 25.125 23.375 24.625 23.375 24.125C23.125 24.125 22.875 24.125 22.625 24.125C22.625 23.875 22.625 23.625 22.625 23.375C22.625 23.125 22.625 22.875 22.625 22.625C22.875 22.625 23.125 22.625 23.375 22.625Z" fill="#9F573E"/>
<path fill-rule="evenodd" clip-rule="evenodd" d="M-0.125 26.375C0.458332 26.375 1.04167 26.375 1.625 26.375C1.625 26.625 1.625 26.875 1.625 27.125C2.625 27.125 3.625 27.125 4.625 27.125C4.625 27.375 4.625 27.625 4.625 27.875C3.04167 27.875 1.45834 27.875 -0.125 27.875C-0.125 27.375 -0.125 26.875 -0.125 26.375Z" fill="#0C0193"/>
<path fill-rule="evenodd" clip-rule="evenodd" d="M22.625 26.375C22.625 26.875 22.625 27.375 22.625 27.875C21.7916 27.875 20.9584 27.875 20.125 27.875C20.125 27.625 20.125 27.375 20.125 27.125C20.375 27.125 20.625 27.125 20.875 27.125C20.875 26.875 20.875 26.625 20.875 26.375C21.4584 26.375 22.0416 26.375 22.625 26.375Z" fill="#0B2A43"/>
</g>
<defs>
<clipPath id="clip0_4_2">
<rect width="28" height="28" fill="white"/>
</clipPath>
</defs>
</svg>
